<svg width="16" height="16" viewBox="0 0 16 16" fill="none" xmlns="http://www.w3.org/2000/svg">
<g clip-path="url(#clip0_316_17087)">
<rect width="16" height="16" fill="#9FFF63"/>
<circle cx="8" cy="8" r="8" fill="#150E1C"/>
<path d="M10.8631 11.9399C10.4136 11.9399 9.99338 11.865 9.60249 11.7152C9.21812 11.5588 8.88586 11.3275 8.60573 11.0214C8.32559 10.7152 8.10408 10.334 7.94121 9.878C7.78486 9.42196 7.70668 8.89426 7.70668 8.2949C7.70668 7.69553 7.78486 7.16783 7.94121 6.7118C8.10408 6.24924 8.32559 5.86487 8.60573 5.55867C8.89238 5.24596 9.22789 5.01143 9.61227 4.85507C9.99664 4.6922 10.4136 4.61076 10.8631 4.61076C11.3126 4.61076 11.7296 4.68894 12.114 4.8453C12.4983 4.99514 12.8273 5.22316 13.101 5.52936C13.3811 5.83555 13.5993 6.21667 13.7557 6.67271C13.9186 7.12223 14 7.64667 14 8.24604C14 8.85192 13.9218 9.38613 13.7655 9.84868C13.6091 10.3047 13.3909 10.6891 13.1107 11.0018C12.8371 11.308 12.5081 11.5425 12.1237 11.7054C11.7394 11.8618 11.3192 11.9399 10.8631 11.9399ZM10.8631 11.4122C11.2735 11.4122 11.6351 11.3373 11.9478 11.1875C12.2605 11.0311 12.5211 10.8161 12.7296 10.5425C12.9446 10.2624 13.1042 9.93012 13.2085 9.54574C13.3192 9.16137 13.3746 8.73791 13.3746 8.27535C13.3746 7.8128 13.3192 7.38934 13.2085 7.00496C13.0977 6.62059 12.9348 6.29159 12.7198 6.01797C12.5114 5.73783 12.2508 5.52284 11.9381 5.373C11.6253 5.21664 11.267 5.13847 10.8631 5.13847C10.4396 5.13847 10.0683 5.21664 9.74908 5.373C9.43637 5.52284 9.17577 5.73783 8.9673 6.01797C8.75882 6.29159 8.59921 6.62059 8.48846 7.00496C8.38422 7.38934 8.3321 7.8128 8.3321 8.27535C8.3321 8.73791 8.38422 9.16137 8.48846 9.54574C8.5927 9.93012 8.74905 10.2624 8.95753 10.5425C9.17252 10.8161 9.43637 11.0311 9.74908 11.1875C10.0683 11.3373 10.4396 11.4122 10.8631 11.4122Z" fill="#DCB8FF"/>
<path d="M4.44306 8.74442L2 4.78667H2.7036L4.746 8.23627L6.82749 4.78667H7.45291L5.03917 8.74442V11.764H4.44306V8.74442Z" fill="#DCB8FF"/>
</g>
<defs>
<clipPath id="clip0_316_17087">
<rect width="16" height="16" fill="white"/>
</clipPath>
</defs>
</svg>
