<svg width="378" height="70" viewBox="0 0 378 70" fill="none" xmlns="http://www.w3.org/2000/svg">
<path d="M354.554 69.3441C347.704 69.3441 342.075 67.1139 337.666 62.6537C333.318 58.1934 331.143 52.5277 331.143 45.6565C331.143 38.9058 333.348 33.3003 337.756 28.8401C342.223 24.3798 347.853 22.1497 354.644 22.1497C361.494 22.1497 367.183 24.5305 371.711 29.2921C376.238 33.9935 378.323 40.4428 377.965 48.64H343.117C343.355 51.4729 344.517 53.8537 346.602 55.7825C348.687 57.651 351.546 58.5852 355.18 58.5852C357.384 58.5852 359.32 58.1633 360.988 57.3194C362.716 56.4153 363.937 55.1797 364.652 53.6126H377.429C376.119 58.2537 373.379 62.0509 369.209 65.0044C365.039 67.8975 360.154 69.3441 354.554 69.3441ZM354.286 32.1853C351.487 32.1853 349.134 32.9387 347.227 34.4455C345.381 35.8921 344.159 37.9113 343.564 40.503H364.562C363.907 37.6702 362.596 35.5907 360.631 34.2647C358.724 32.8784 356.61 32.1853 354.286 32.1853Z" fill="#FDFFF3"/>
<path d="M300.883 68.3514L281.135 23.146H294.628L306.423 52.0774L318.218 23.146H331.889L312.052 68.3514H300.883Z" fill="#FDFFF3"/>
<path d="M233.365 68.3513V33.9952H224.341V23.1459H233.365V17.2692C233.365 11.9048 234.974 7.68565 238.191 4.61168C241.407 1.53772 245.488 0.000732422 250.432 0.000732422C253.47 0.000732422 256.062 0.332238 258.206 0.995249V11.935C256.776 11.3925 255.108 11.1213 253.202 11.1213C250.522 11.1213 248.586 11.724 247.394 12.9295C246.203 14.0747 245.607 16.0336 245.607 18.8062V23.1459H258.206V33.9952H245.607V68.3513H233.365ZM270.267 15.7322C268.182 15.7322 266.365 14.9788 264.816 13.4719C263.267 11.9048 262.493 10.0363 262.493 7.86647C262.493 5.69661 263.267 3.85826 264.816 2.35141C266.365 0.784293 268.182 0.000732422 270.267 0.000732422C272.471 0.000732422 274.317 0.784293 275.807 2.35141C277.356 3.85826 278.13 5.69661 278.13 7.86647C278.13 10.0363 277.356 11.9048 275.807 13.4719C274.317 14.9788 272.471 15.7322 270.267 15.7322ZM264.191 68.3513V23.1459H276.432V68.3513H264.191Z" fill="#FDFFF3"/>
<path d="M143.173 68.8918C138.169 68.8918 134.059 67.5055 130.842 64.7329C127.685 61.9001 126.106 57.8316 126.106 52.5275V33.9933H117.082V23.144H126.106V10.5769H138.348V23.144H150.947V33.9933H138.348V50.0864C138.348 52.859 138.944 54.848 140.135 56.0535C141.327 57.1987 143.263 57.7713 145.943 57.7713C147.849 57.7713 149.517 57.5001 150.947 56.9576V67.8973C148.803 68.5603 146.211 68.8918 143.173 68.8918Z" fill="#FDFFF3"/>
<path d="M104.883 15.7322C102.798 15.7322 100.982 14.9788 99.4328 13.4719C97.884 11.9048 97.1096 10.0363 97.1096 7.86647C97.1096 5.69661 97.884 3.85826 99.4328 2.35141C100.982 0.784293 102.798 0.000732422 104.883 0.000732422C107.088 0.000732422 108.934 0.784293 110.423 2.35141C111.972 3.85826 112.747 5.69661 112.747 7.86647C112.747 10.0363 111.972 11.9048 110.423 13.4719C108.934 14.9788 107.088 15.7322 104.883 15.7322ZM98.8073 68.3513V23.1459H111.049V68.3513H98.8073Z" fill="#FDFFF3"/>
<path d="M80.4552 68.3514L70.09 55.061L59.7248 68.3514H44.9813L62.3161 46.2007L45.428 23.146H59.9035L70.0007 36.9788L80.0978 23.146H94.6626L77.7745 46.2007L95.1094 68.3514H80.4552Z" fill="#FDFFF3"/>
<path d="M23.411 69.3441C16.5604 69.3441 10.9311 67.1139 6.52291 62.6537C2.1743 58.1934 0 52.5277 0 45.6565C0 38.9058 2.20409 33.3003 6.61227 28.8401C11.08 24.3798 16.7094 22.1497 23.5004 22.1497C30.3509 22.1497 36.0398 24.5305 40.5671 29.2921C45.0945 33.9935 47.1794 40.4428 46.822 48.64H11.9736C12.2118 51.4729 13.3735 53.8537 15.4584 55.7825C17.5434 57.651 20.4027 58.5852 24.0365 58.5852C26.2406 58.5852 28.1766 58.1633 29.8446 57.3194C31.5721 56.4153 32.7933 55.1797 33.5081 53.6126H46.2859C44.9753 58.2537 42.2351 62.0509 38.0652 65.0044C33.8953 67.8975 29.0106 69.3441 23.411 69.3441ZM23.1429 32.1853C20.3431 32.1853 17.9901 32.9387 16.0839 34.4455C14.2372 35.8921 13.016 37.9113 12.4203 40.503H33.4188C32.7635 37.6702 31.4529 35.5907 29.4871 34.2647C27.5809 32.8784 25.4662 32.1853 23.1429 32.1853Z" fill="#FDFFF3"/>
<path d="M209.385 22.4998V68.4333H197.138V54.1275C197.138 52.5374 197.364 50.9553 197.81 49.4289L200.148 41.4136L177.057 66.4068L167.16 56.9499L190.912 32.6322L183.523 34.5101C182.173 34.8534 180.785 35.0271 179.391 35.0271H165.841V22.4998H209.385Z" fill="#8AFF80"/>
</svg>
